<svg version="1" xmlns="http://www.w3.org/2000/svg" width="933.333" height="933.333" viewBox="0 0 700.000000 700.000000"><path d="M337.1 45.1c-34.8 6.5-59.5 36.2-60 72l-.1 4.7-8.7-4.5c-27.7-13.9-61.3-8.4-83.3 13.7-31.9 31.9-27.4 84.2 9.5 110.5 3.4 2.5 6.7 4.5 7.3 4.5.5 0 1.5.7 2.2 1.5 1 1.2 1 1.5-.1 1.5-2 0-12 6.7-17.2 11.6-26 24.1-30.5 64.8-10.5 94.1 8.8 12.9 26.5 25.7 39.8 28.9 1.9.4 3.7.8 4 .9 6.6 1.7 16.9 2.3 24 1.3 12-1.6 17.6-3.4 26.8-8.4l6.2-3.5.1 4.8c.4 27.8 15.7 53.1 39.4 65.1 11.9 6 19.6 7.7 34 7.6 11.2-.1 14.1-.5 21-2.7 30.9-10.2 50.8-37.3 51.4-69.9l.1-4.8 6.3 3.4c27.4 14.9 61.5 10.6 83.8-10.6 12.6-12 19.5-24.9 22.3-41.8 4.8-29.5-9.6-59.5-35.8-74.5-4.6-2.7-4.7-2.9-2.6-3.7 4.5-1.6 14.8-9.8 20.9-16.4 13.6-14.9 20.8-37.8 17.9-57.3-1-7.2-2.9-14.3-3.9-15.6-.5-.5-.9-1.6-.9-2.5 0-3.3-9.5-17.5-16-24-22.8-22.6-57-27.8-84.7-13l-7.3 3.9-.1-5.2c-.8-34.7-24.6-64.2-57.4-71-7.7-1.6-21.5-1.9-28.4-.6zm28.6 131.7c6.6 1.4 16.1 5.3 22.3 9.1 13.5 8.3 24.2 21.2 29.8 35.9 3.6 9.2 4.1 12 4.7 23.2.9 20.5-6.6 39.9-20.8 53.8-7.8 7.7-12.4 11-21.1 15.1-9.8 4.6-17.7 6.4-29.1 6.5-11.6.1-16.5-.6-24.9-3.5-14-4.9-23.3-11.6-35.1-25.4-3.6-4.3-10.1-17.9-12.2-25.5-2.3-8.8-2.3-27.1.1-36 8.7-32.8 38.2-55.3 71.6-54.5 5.2.1 11.8.7 14.7 1.3z"/><path d="M88.3 394.3c-1.9 3.1.8 32.3 4.8 52.2 19.2 94.5 91 172.3 183.7 198.9 26.5 7.7 43.7 10 72.2 10.1 16.9 0 30.1-.7 37.6-2 45.1-7.8 78.2-20.7 111.4-43.4 19.1-13 43.1-35.2 55.9-51.6 3.4-4.4 7-8.9 7.9-10 4.4-5.5 16-24.4 21.7-35.5 8.3-16.3 17-38.3 19-48.4.3-1 1.1-4.2 1.9-7 1.5-5.1 4.6-21 5.1-25.6.1-1.4.5-4.8.9-7.5 1.5-11.2 2.2-28.7 1.3-30.2-.4-.6-1.9-.9-3.4-.8-1.6.2-7.5.6-13.3.9-61.7 3.5-122.1 30.2-166.2 73.7-25 24.7-42.1 49.3-56.2 80.7-5.5 12.3-13.1 34.4-15.1 44.2-.2.8-.8 3.5-1.4 6-1.1 4.8-1.4 6.7-3.1 17.5-1.5 9.2-2 13.9-2.4 20.2-.2 5.2-1.2 8.2-1.2 4-.1-2.6-1.3-16.8-2-21.7-.3-3-1.3-8.6-3-17.6-1.8-9.7-8.5-31.6-13.3-43.6-7.2-18.2-21.9-44.6-31.8-57.3-1.3-1.7-2.7-3.5-3.1-4-18.2-24.1-45.6-48.6-73.2-65.5-33.8-20.6-77.2-34.2-117-36.5-5.8-.4-12-.8-13.8-.9-1.8-.2-3.5.1-3.9.7z"/></svg>